<svg width="60" height="56" viewBox="0 0 60 56" fill="none" xmlns="http://www.w3.org/2000/svg">
<g clip-path="url(#clip0)">
<path d="M60 24.8254V23.4077H50.7261C50.6964 23.2485 50.6698 23.0883 50.6371 22.9292L54.7357 20.1221L52.1854 13.8094L47.3459 14.7832C45.5396 11.9195 43.1223 9.44641 40.3162 7.58477L41.2751 2.63122L35.1082 0.0115175L32.3574 4.20387C29.0877 3.48456 25.6695 3.48141 22.4111 4.19236L19.6674 0L13.4964 2.60923L14.4471 7.56069C11.6482 9.41081 9.2299 11.8818 7.41135 14.7528L2.56972 13.7717L0.0112572 20.0802L4.10889 22.8946C3.40582 26.2399 3.40173 29.737 4.09763 33.0708L0 35.8769L2.55027 42.1906L7.38986 41.2179C9.19715 44.0815 11.6123 46.5546 14.4195 48.4163L13.4606 53.3698L19.6265 55.9885L22.3783 51.7961C25.6491 52.5154 29.0672 52.5196 32.3246 51.8076L35.0683 56.001L41.2383 53.3918L40.2876 48.4404C43.0865 46.5913 45.5038 44.1192 47.3233 41.2482L52.165 42.2293L54.7245 35.9198L50.6268 33.1043C50.6637 32.9284 50.6923 32.7515 50.7261 32.5745H60.001V31.1568H30.4866L30.4795 33.3682L23.9206 28.0105L30.4887 22.6412L30.4815 24.8264H60V24.8254ZM49.3056 32.5745C49.2596 32.8028 49.061 33.7378 49.061 33.7378L53.0093 36.4496L51.3207 40.6127L46.6561 39.6672C44.5561 43.0973 41.9751 45.8709 38.7433 47.7545L39.6592 52.5249L35.5882 54.2462L32.9458 50.2067C29.2217 51.1229 25.4935 51.1941 21.7612 50.1952L19.1107 54.2347L15.0417 52.5071L15.9658 47.7346C12.8169 45.9065 10.2154 43.1528 8.0612 39.64L3.39866 40.5771L1.71622 36.4119L5.66443 33.7085C4.70757 29.9475 4.75771 26.131 5.67569 22.2653L1.72747 19.5535L3.41606 15.3915L8.08064 16.337C9.68326 13.2922 12.4229 10.6306 15.9935 8.24964L15.0775 3.48037L19.1485 1.75903L21.7909 5.79852C25.4608 4.82791 29.191 4.86142 32.9755 5.81004L35.6261 1.7716L39.695 3.49921L38.7709 8.27163C42.0713 10.2453 44.6584 12.9959 46.6755 16.3674L51.3381 15.4292L53.0205 19.5943L49.0723 22.2978L49.1828 22.7763C49.2309 22.9878 49.2647 23.1993 49.3077 23.4119H43.5778C41.5955 16.0763 35.0847 10.9018 27.6119 10.7908C18.3575 10.6819 10.678 18.2636 10.5429 27.755C10.4774 32.3526 12.166 36.7009 15.2975 40.0001C18.4291 43.2983 22.6291 45.1516 27.1228 45.2186C27.2036 45.2197 27.2824 45.2207 27.3622 45.2207C34.8841 45.2197 41.5852 39.9656 43.5767 32.5798H49.3056V32.5745ZM21.6988 28.0094L31.8569 36.3083L31.8672 32.5745H42.1368C40.1873 39.1541 34.1381 43.7978 27.3633 43.7978C27.2906 43.7978 27.2169 43.7978 27.1432 43.7957C23.02 43.7339 19.1659 42.0335 16.2923 39.0065C13.4186 35.9795 11.8692 31.9892 11.9286 27.7707C12.0514 19.1389 18.9531 12.2033 27.3643 12.2033C27.439 12.2033 27.5157 12.2033 27.5915 12.2054C34.3192 12.3048 40.1934 16.8794 42.1317 23.4087H31.8723L31.8835 19.6854L21.6988 28.0094Z" fill="black"/>
</g>
<defs>
<clipPath id="clip0">
<rect width="60" height="56" fill="white"/>
</clipPath>
</defs>
</svg>
