<svg width="70" height="69" viewBox="0 0 70 69" fill="none" xmlns="http://www.w3.org/2000/svg">
<path d="M34.8204 68.8089C15.8445 68.8089 0.416016 53.3804 0.416016 34.4044C0.416016 15.4285 15.8445 0 34.8204 0C53.7964 0 69.2249 15.4285 69.2249 34.4044C69.2249 53.3804 53.7964 68.8089 34.8204 68.8089ZM34.8204 1.52909C16.7008 1.52909 1.9451 16.2695 1.9451 34.4044C1.9451 52.5394 16.7008 67.2798 34.8204 67.2798C52.9401 67.2798 67.6958 52.5394 67.6958 34.4044C67.6958 16.2695 52.9401 1.52909 34.8204 1.52909Z" fill="#184C5F"/>
<path d="M29.0245 30.597C25.7829 30.597 23.1528 27.6153 23.1528 23.9455C23.1528 20.2757 25.7829 17.2939 29.0245 17.2939C32.2662 17.2939 34.8962 20.2757 34.8962 23.9455C34.8962 27.6 32.2662 30.597 29.0245 30.597ZM29.0245 18.8077C26.6239 18.8077 24.6819 21.1014 24.6819 23.9302C24.6819 26.759 26.6391 29.0526 29.0245 29.0526C31.4252 29.0526 33.3671 26.759 33.3671 23.9302C33.3671 21.1014 31.4252 18.8077 29.0245 18.8077Z" fill="#00BF72"/>
<path d="M38.7341 47.3558H19.0548C18.6572 47.3558 18.3208 47.05 18.2902 46.6371L17.8621 40.2914C17.7245 38.1813 19.3606 35.7653 21.4554 34.9855C26.2568 33.2576 31.5627 33.2729 36.364 34.9855C38.673 35.8418 40.0797 38.4106 39.9574 40.2914L39.5292 46.6371C39.4681 47.05 39.147 47.3558 38.7341 47.3558ZM19.7582 45.8267H38.0307L38.413 40.1844C38.5048 38.8847 37.4191 37.0039 35.8289 36.4228C31.3792 34.8326 26.425 34.8326 21.9753 36.4228C20.4004 37.0039 19.2994 38.8999 19.3912 40.1844L19.7582 45.8267Z" fill="#00BF72"/>
<path d="M38.7341 47.3558H19.0548C18.6572 47.3558 18.3208 47.05 18.2902 46.6371L17.8621 40.2914C17.7245 38.1813 19.3606 35.7653 21.4554 34.9855C26.2568 33.2576 31.5627 33.2729 36.364 34.9855C38.673 35.8418 40.0797 38.4106 39.9574 40.2914L39.5292 46.6371C39.4681 47.05 39.147 47.3558 38.7341 47.3558ZM19.7582 45.8267H38.0307L38.413 40.1844C38.5048 38.8847 37.4191 37.0039 35.8289 36.4228C31.3792 34.8326 26.425 34.8326 21.9753 36.4228C20.4004 37.0039 19.2994 38.8999 19.3912 40.1844L19.7582 45.8267Z" fill="#00BF72"/>
<path d="M50.6457 47.3557H42.8015C42.3733 47.3557 42.0369 47.0193 42.0369 46.5912C42.0369 46.163 42.3733 45.8266 42.8015 45.8266H49.927L50.2481 41.0559C50.3246 39.9702 49.4071 38.3953 48.0768 37.906C46.2878 37.2638 44.3917 36.9274 42.4651 36.8815C42.0369 36.8815 41.7005 36.5298 41.7158 36.1016C41.7158 35.6735 42.0522 35.3065 42.4957 35.3524C44.5905 35.383 46.6395 35.7652 48.5967 36.4686C50.4469 37.1567 51.8995 39.2974 51.7619 41.1629L51.3797 46.6523C51.3797 47.0499 51.0433 47.3557 50.6457 47.3557Z" fill="#00BF72"/>
<path d="M44.6212 32.2025C42.0064 32.2025 39.8657 29.8018 39.8657 26.8507C39.8657 23.8996 41.9912 21.4989 44.6212 21.4989C47.2359 21.4989 49.3766 23.8996 49.3766 26.8507C49.3613 29.8018 47.2359 32.2025 44.6212 32.2025ZM44.6212 23.0127C42.8474 23.0127 41.3948 24.7253 41.3948 26.8354C41.3948 28.9455 42.8322 30.6581 44.6212 30.6581C46.3949 30.6581 47.8476 28.9455 47.8476 26.8354C47.8323 24.7406 46.3949 23.0127 44.6212 23.0127Z" fill="#00BF72"/>
</svg>
