<svg width="443" height="449" viewBox="0 0 443 449" fill="none" xmlns="http://www.w3.org/2000/svg">
<path d="M307.454 417.519C377.484 386.824 454.948 317.142 440.177 224.455C440.177 224.455 430.176 153.756 399.445 89.6546C381.208 51.6118 349.454 22.4765 311.388 8.85628C273.323 -4.76395 232.176 -1.69644 197.262 17.3157C174.587 29.6663 150.553 40.3431 125.346 45.9361C93.5571 52.9859 59.8322 59.2641 34.2459 80.9764C-3.23905 112.792 -2.60784 165.736 4.94804 210.06C7.72943 226.392 11.418 242.551 14.4296 258.837C20.2053 290.083 33.3206 323.347 49.2044 350.697C130.149 490.085 237.425 448.215 307.454 417.519Z" fill="#F4F7FA"/>
</svg>
