<svg width="69" height="69" viewBox="0 0 69 69" fill="none" xmlns="http://www.w3.org/2000/svg">
<path d="M34.4044 68.8089C15.4285 68.8089 0 53.3804 0 34.4044C0 15.4285 15.4285 0 34.4044 0C53.3804 0 68.8089 15.4285 68.8089 34.4044C68.8089 53.3804 53.3804 68.8089 34.4044 68.8089ZM34.4044 1.52909C16.2848 1.52909 1.52909 16.2695 1.52909 34.4044C1.52909 52.5394 16.2848 67.2798 34.4044 67.2798C52.5394 67.2798 67.2798 52.5394 67.2798 34.4044C67.2798 16.2695 52.5394 1.52909 34.4044 1.52909Z" fill="#184C5F"/>
<path d="M35.8414 45.6739C35.8414 46.6831 35.031 47.4935 34.0218 47.4935C33.0126 47.4935 32.2021 46.6831 32.2021 45.6739C32.2021 44.6647 33.0126 43.8542 34.0218 43.8542C35.031 43.8542 35.8414 44.6647 35.8414 45.6739Z" fill="#00BF72"/>
<path d="M43.7309 44.5731C38.2568 44.5731 33.8071 40.1235 33.8071 34.6494C33.8071 29.1752 38.2568 24.7256 43.7309 24.7256C49.205 24.7256 53.6547 29.1752 53.6547 34.6494C53.6547 40.1235 49.205 44.5731 43.7309 44.5731ZM43.7309 26.27C39.1131 26.27 35.3362 30.0315 35.3362 34.6646C35.3362 39.2825 39.0978 43.0593 43.7309 43.0593C48.364 43.0593 52.1256 39.2978 52.1256 34.6646C52.1256 30.0315 48.364 26.27 43.7309 26.27Z" fill="#00BF72"/>
<path d="M44.7255 51.4385H23.3183C22.8901 51.4385 22.5537 51.1021 22.5537 50.674V17.0341C22.5537 16.6059 22.8901 16.2695 23.3183 16.2695H44.7255C45.1536 16.2695 45.49 16.6059 45.49 17.0341V25.5664H43.9609V17.7986H24.0828V49.9094H43.9609V43.7625H45.49V50.674C45.49 51.0868 45.1536 51.4385 44.7255 51.4385Z" fill="#00BF72"/>
<path d="M37.6757 42.2639H26.391C25.9629 42.2639 25.6265 41.9275 25.6265 41.4994V22.1259C25.6265 21.6977 25.9629 21.3613 26.391 21.3613H41.6819C42.11 21.3613 42.4464 21.6977 42.4464 22.1259V25.7498C42.4464 26.1779 42.11 26.5143 41.6819 26.5143C41.2537 26.5143 40.9173 26.1779 40.9173 25.7498V22.8904H27.1556V40.7348H37.6757C38.1038 40.7348 38.4402 41.0712 38.4402 41.4994C38.4402 41.9122 38.0885 42.2639 37.6757 42.2639Z" fill="#00BF72"/>
<path d="M55.8575 47.9369C55.6587 47.9369 55.46 47.8605 55.3224 47.7076L49.6341 42.0194C49.3283 41.7135 49.3283 41.2395 49.6341 40.9337C49.94 40.6279 50.414 40.6279 50.7198 40.9337L56.408 46.6219C56.7138 46.9277 56.7138 47.4017 56.408 47.7076C56.2551 47.8605 56.0563 47.9369 55.8575 47.9369Z" fill="#00BF72"/>
</svg>
