<svg width="69" height="69" viewBox="0 0 69 69" fill="none" xmlns="http://www.w3.org/2000/svg">
<path d="M34.4044 68.8089C15.4285 68.8089 0 53.3804 0 34.4044C0 15.4285 15.4285 0 34.4044 0C53.3804 0 68.8089 15.4285 68.8089 34.4044C68.8089 53.3804 53.3804 68.8089 34.4044 68.8089ZM34.4044 1.52909C16.2695 1.52909 1.52909 16.2695 1.52909 34.4044C1.52909 52.5394 16.2695 67.2798 34.4044 67.2798C52.5241 67.2798 67.2798 52.5394 67.2798 34.4044C67.2798 16.2695 52.5241 1.52909 34.4044 1.52909Z" fill="#184C5F"/>
<path d="M22.8745 49.9552C21.5136 49.9552 20.5962 48.8696 20.5962 47.2487V21.5754C20.5962 19.7099 21.743 18.8689 22.8745 18.8689C23.3944 18.8689 23.9296 19.0218 24.4648 19.3429L46.6977 32.1872C47.661 32.7377 48.2115 33.5481 48.2115 34.4197C48.2115 35.2913 47.661 36.1017 46.6977 36.6522L24.4648 49.4812C23.9296 49.787 23.3944 49.9552 22.8745 49.9552ZM22.8745 20.3827C22.2017 20.3827 22.1253 21.2084 22.1253 21.5601V47.2334C22.1253 47.5851 22.2017 48.4108 22.8745 48.4108C23.1192 48.4108 23.3944 48.3191 23.7002 48.1509L45.9331 35.3066C46.4072 35.0313 46.6824 34.6949 46.6824 34.3891C46.6824 34.0833 46.4072 33.7469 45.9331 33.4717L23.7002 20.6273C23.4097 20.4744 23.1192 20.3827 22.8745 20.3827Z" fill="#00BF72"/>
</svg>
