<svg width="69" height="69" viewBox="0 0 69 69" fill="none" xmlns="http://www.w3.org/2000/svg">
<path d="M34.4044 68.8089C15.4285 68.8089 0 53.3804 0 34.4044C0 15.4285 15.4285 0 34.4044 0C53.3804 0 68.8089 15.4285 68.8089 34.4044C68.8089 53.3804 53.3804 68.8089 34.4044 68.8089ZM34.4044 1.52909C16.2695 1.52909 1.52909 16.2695 1.52909 34.4044C1.52909 52.5394 16.2695 67.2798 34.4044 67.2798C52.5394 67.2798 67.2798 52.5394 67.2798 34.4044C67.2798 16.2695 52.5241 1.52909 34.4044 1.52909Z" fill="#184C5F"/>
<path d="M17.3554 27.7835C16.9272 27.7835 16.5908 27.4471 16.5908 27.0189V17.7068C16.5908 17.2787 16.9272 16.9423 17.3554 16.9423H26.6675C27.0956 16.9423 27.432 17.2787 27.432 17.7068C27.432 18.1349 27.0956 18.4713 26.6675 18.4713H18.1199V27.0189C18.1199 27.4471 17.7835 27.7835 17.3554 27.7835Z" fill="#00BF72"/>
<path d="M34.4051 35.5207C34.2063 35.5207 34.0075 35.4442 33.8699 35.2913L18.0897 19.5264C17.7839 19.2206 17.7839 18.7466 18.0897 18.4408C18.3955 18.135 18.8695 18.135 19.1754 18.4408L34.9555 34.221C35.2614 34.5268 35.2614 35.0008 34.9555 35.3066C34.8026 35.4442 34.6038 35.5207 34.4051 35.5207Z" fill="#00BF72"/>
<path d="M51.4541 27.7835C51.026 27.7835 50.6896 27.4471 50.6896 27.0189V18.4713H42.142C41.7138 18.4713 41.3774 18.1349 41.3774 17.7068C41.3774 17.2787 41.7138 16.9423 42.142 16.9423H51.4541C51.8823 16.9423 52.2187 17.2787 52.2187 17.7068V27.0189C52.2187 27.4471 51.8823 27.7835 51.4541 27.7835Z" fill="#00BF72"/>
<path d="M34.4511 35.4901C34.2523 35.4901 34.0535 35.4136 33.9159 35.2607C33.6101 34.9549 33.6101 34.4809 33.9159 34.1751L49.6502 18.4408C49.956 18.135 50.43 18.135 50.7358 18.4408C51.0416 18.7466 51.0416 19.2206 50.7358 19.5264L34.9862 35.2607C34.8333 35.4136 34.6346 35.4901 34.4511 35.4901Z" fill="#00BF72"/>
<path d="M34.2059 51.8667C33.7778 51.8667 33.4414 51.5303 33.4414 51.1021V34.6644C33.4414 34.2363 33.7778 33.8999 34.2059 33.8999C34.6341 33.8999 34.9705 34.2363 34.9705 34.6644V51.1021C34.9705 51.5303 34.6188 51.8667 34.2059 51.8667Z" fill="#00BF72"/>
</svg>
